# xmcd CD database file
#
# Track frame offsets:
#	150
#	12739
#	27160
#	45431
#	59950
#	74890
#	82889
#	92404
#	109006
#	126887
#	140037
#	157115
#	167116
#	179985
#	195729
#	205072
#	213835
#	221546
#
# Disc length: 3146 seconds
#
# Revision: 0
# Processed by: cddbd v1.5.2PL0 Copyright (c) Steve Scherf et al.
# Submitted via: CDex 1.51
#
DISCID=170c4812
DTITLE=Heart Of Buddha - Anael and Bradfield
DYEAR=2010
DGENRE=New Age
TTITLE0=Overture
TTITLE1=Samaya Pledge
TTITLE2=Higher Self
TTITLE3=Potential
TTITLE4=Closer
TTITLE5=Centering
TTITLE6=Overcoming
TTITLE7=Rediscovery
TTITLE8=Passionate Love
TTITLE9=Accordance
TTITLE10=Purification
TTITLE11=Noble Mind
TTITLE12=Transcendental
TTITLE13=Blessed Buddha
TTITLE14=Liberation
TTITLE15=Indivisible
TTITLE16=Mahasamayasato
TTITLE17=Ultimate Purity
EXTD=YEAR: 2010
EXTT0=
EXTT1=
EXTT2=
EXTT3=
EXTT4=
EXTT5=
EXTT6=
EXTT7=
EXTT8=
EXTT9=
EXTT10=
EXTT11=
EXTT12=
EXTT13=
EXTT14=
EXTT15=
EXTT16=
EXTT17=
PLAYORDER=
